  <svg xmlns="http://www.w3.org/2000/svg" width="14" height="14" fill="none">
              <path
                fill="#fff"
                d="M9.917 1.167a2.926 2.926 0 0 1 2.916 2.916v5.834a2.926 2.926 0 0 1-2.916 2.916H4.083a2.926 2.926 0 0 1-2.916-2.916V4.083a2.926 2.926 0 0 1 2.916-2.916h5.834Zm0-1.167H4.083A4.095 4.095 0 0 0 0 4.083v5.834A4.095 4.095 0 0 0 4.083 14h5.834A4.095 4.095 0 0 0 14 9.917V4.083A4.095 4.095 0 0 0 9.917 0Z"
              />
              <path
                fill="#fff"
                d="M10.792 4.083a.875.875 0 1 1 0-1.75.875.875 0 0 1 0 1.75ZM7 4.667a2.333 2.333 0 1 1 0 4.666 2.333 2.333 0 0 1 0-4.666ZM7 3.5a3.5 3.5 0 1 0 0 7 3.5 3.5 0 0 0 0-7Z"
              />
            </svg>