<svg xmlns="http://www.w3.org/2000/svg" width="16" height="12" fill="none">
              <path
                fill="#fff"
                d="M15.5 1.422a6.306 6.306 0 0 1-1.767.478A3.047 3.047 0 0 0 15.087.225a6.18 6.18 0 0 1-1.955.734A3.098 3.098 0 0 0 10.885 0c-1.7 0-3.077 1.357-3.077 3.029-.001.233.025.464.08.69A8.772 8.772 0 0 1 1.542.554a2.99 2.99 0 0 0-.418 1.522A3.02 3.02 0 0 0 2.5 4.597a3.047 3.047 0 0 1-1.4-.378v.037c0 1.469 1.063 2.69 2.47 2.969-.265.07-.538.106-.811.106a2.95 2.95 0 0 1-.579-.056 3.076 3.076 0 0 0 2.877 2.103A6.238 6.238 0 0 1 .5 10.631 8.71 8.71 0 0 0 5.21 12c5.668 0 8.764-4.616 8.764-8.619a8.11 8.11 0 0 0-.01-.39A6.201 6.201 0 0 0 15.5 1.42Z"
              />
            </svg>