 <svg xmlns="http://www.w3.org/2000/svg" width="16" height="12" fill="none">
              <path
                fill="#fff"
                d="M15.896 2.65c0-1.407-1.034-2.538-2.312-2.538C11.852.032 10.087 0 8.282 0H7.72c-1.8 0-3.569.031-5.3.113C1.145.113.11 1.25.11 2.655a46.487 46.487 0 0 0-.109 3.337 48.387 48.387 0 0 0 .106 3.341c0 1.406 1.035 2.547 2.31 2.547 1.819.084 3.684.122 5.581.119 1.9.006 3.76-.034 5.581-.12 1.278 0 2.313-1.14 2.313-2.546.075-1.116.11-2.228.106-3.344a45.423 45.423 0 0 0-.102-3.34ZM6.47 9.06V2.917L11 5.988 6.47 9.058Z"
              />
            </svg>